<?xml version="1.0" encoding="UTF-8"?>
<svg version="1.1" xmlns="http://www.w3.org/2000/svg" width="244" height="261">
<path d="M0 0 C79.53 0 159.06 0 241 0 C242 30 242 30 238.36183167 37.36605835 C235.8417511 40.01527405 235.8417511 40.01527405 233.02563477 42.49365234 C232.04375056 43.46674538 231.06873455 44.44680809 230.1000061 45.43299866 C227.50140812 48.04033261 224.82039458 50.54213858 222.11041379 53.03279829 C219.27678197 55.6697095 216.53335592 58.39763642 213.77830505 61.11611938 C208.57195289 66.2269341 203.29202173 71.25372033 197.97914213 76.25344813 C191.92478943 81.95863475 185.96052887 87.75447245 180.00131905 93.55871272 C167.76347355 105.47440151 155.41999651 117.27434895 143 129 C144.30642495 131.88307027 145.69471517 133.94199398 147.9359436 136.16972351 C148.53609787 136.77118195 149.13625214 137.37264038 149.7545929 137.99232483 C150.73966072 138.96425026 150.73966072 138.96425026 151.74462891 139.95581055 C152.43742447 140.64729187 153.13022003 141.33877319 153.8440094 142.0512085 C156.13363231 144.33434303 158.43014097 146.61042432 160.7265625 148.88671875 C162.31604822 150.46993524 163.90502067 152.05366721 165.49349976 153.63789368 C169.67485535 157.8059449 173.86174223 161.96839172 178.05023193 166.12927246 C184.76335079 172.79926567 191.46973452 179.47601462 198.17295456 186.15595436 C200.52169322 188.4944254 202.87379046 190.82947984 205.22622681 193.16423035 C206.65565099 194.58683098 208.08496807 196.00953924 209.51416016 197.43237305 C210.1749205 198.08639603 210.83568085 198.74041901 211.51646423 199.41426086 C213.03003414 200.92397208 214.51814978 202.45914253 216 204 C216 204.33 216 204.66 216 205 C201.52847595 208.52613761 182.75779385 211.98561514 169.23632812 203.95215607 C159.27530957 197.19163182 150.8773766 188.24606517 142.6875 179.5 C142.11617214 178.89015133 141.54484428 178.28030266 140.95620346 177.65197372 C133.7671891 169.94167384 126.79725193 162.0574134 120 154 C117.07742561 155.32041445 115.00741791 156.74428065 112.74761963 159.01187134 C112.12916294 159.62757303 111.51070625 160.24327473 110.87350845 160.87763405 C110.20401043 161.55432829 109.53451241 162.23102253 108.84472656 162.92822266 C108.12065487 163.65205328 107.39658318 164.3758839 106.65056992 165.12164879 C104.30922488 167.46448592 101.97482771 169.81411153 99.640625 172.1640625 C98.19560325 173.612025 96.75013072 175.05953777 95.30419922 176.5065918 C89.9473317 181.87394298 84.59919494 187.25000215 79.25 192.625 C61.30625 210.630625 61.30625 210.630625 43 229 C140.515 229.495 140.515 229.495 240 230 C240 240.23 240 250.46 240 261 C160.14 261 80.28 261 -2 261 C-2 225.00872431 -2 225.00872431 10.00141144 211.98962307 C10.92137657 211.15881757 11.84134171 210.32801207 12.78918457 209.47203064 C13.84831424 208.49791858 14.9065561 207.52284051 15.96400452 206.54690361 C16.49963327 206.05849519 17.03526203 205.57008676 17.58712196 205.06687808 C20.36590327 202.49816008 23.04810833 199.8318507 25.74304199 197.17579651 C30.83232107 192.18804155 35.99934285 187.29021698 41.20211172 182.42125994 C47.13251727 176.86313733 52.96653434 171.2079596 58.79548931 165.54383171 C70.76168256 153.92017183 82.83962033 142.42043222 95 131 C93.68675199 128.09725328 92.28176566 126.0345892 90.02609253 123.79231262 C89.41752411 123.18244003 88.80895569 122.57256744 88.1819458 121.94421387 C87.51588318 121.28691284 86.84982056 120.62961182 86.16357422 119.95239258 C85.10975052 118.90054024 85.10975052 118.90054024 84.03463745 117.82743835 C81.71254914 115.51183898 79.38357401 113.20329153 77.0546875 110.89453125 C75.44278155 109.28889446 73.83138885 107.68274226 72.2204895 106.07609558 C67.97995012 101.84886115 63.73387912 97.62723041 59.48620605 93.40716553 C52.67833585 86.64241936 45.87719943 79.87091908 39.07922745 73.09622765 C36.69725013 70.72451818 34.31191393 68.35622481 31.92623901 65.98823547 C30.47659185 64.54541185 29.02705178 63.10248061 27.57763672 61.65942383 C26.90752563 60.99605011 26.23741455 60.33267639 25.54699707 59.64920044 C24.01227504 58.11833643 22.50300309 56.5620173 21 55 C21 54.67 21 54.34 21 54 C35.50565913 50.37894181 54.23550875 46.95542097 67.78421783 55.06838989 C77.91090224 61.98408249 86.46320563 71.0953202 94.8125 80 C95.39578568 80.62180649 95.97907135 81.24361298 96.58003235 81.88426208 C103.92320958 89.74893651 111.04773131 97.78810826 118 106 C120.90297734 104.68634063 122.96908109 103.27927877 125.2144165 101.02609253 C125.82447666 100.41878736 126.43453682 99.8114822 127.06308365 99.18577385 C127.72321331 98.51844797 128.38334297 97.85112209 129.06347656 97.16357422 C129.77763607 96.44965578 130.49179558 95.73573734 131.22759628 95.00018501 C133.53663643 92.6896529 135.83872779 90.37233367 138.140625 88.0546875 C139.56578995 86.62658176 140.99140573 85.19892576 142.41748047 83.77172852 C147.7004551 78.47827067 152.97469858 73.17610477 158.25 67.875 C170.0475 56.03625 181.845 44.1975 194 32 C97.97 31.505 97.97 31.505 0 31 C0 20.77 0 10.54 0 0 Z " fill="#000000" transform="translate(2,0)"/>
</svg>
